<?xml version="1.0" encoding="UTF-8"?>
<svg id="Layer_1" data-name="Layer 1" xmlns="http://www.w3.org/2000/svg" viewBox="0 0 650 250">
  <defs>
    <style>
      .cls-1 {
        fill: #81b338;
      }

      .cls-2 {
        fill: #262626;
      }
    </style>
  </defs>
  <path class="cls-1" d="M85.43,141.13l47.56-86.12c.3-.54.87-.88,1.48-.88h34.61c1.29,0,2.1,1.38,1.49,2.51l-70.35,128.47c-.73,1.33-2.71,1.11-3.12-.36l-11.83-42.35c-.12-.43-.07-.89.15-1.28Z"/>
  <path class="cls-2" d="M91.57,195.87h-34.96c-.76,0-1.44-.51-1.64-1.25L17.43,56.27c-.29-1.08.52-2.14,1.64-2.14h34.96c.77,0,1.44.51,1.64,1.25l25.38,93.71,12.17,44.63c.29,1.08-.52,2.14-1.63,2.14Z"/>
  <path class="cls-2" d="M179.69,54.13h107.95c1.03,0,1.82.91,1.68,1.92l-3.39,24.96c-.11.84-.83,1.47-1.68,1.47h-72.16c-.85,0-1.57.63-1.68,1.47l-3.39,24.96c-.14,1.02.65,1.92,1.68,1.92h61.9c1.62,0,2.32,2.06,1.03,3.04l-32.62,24.96c-.3.23-.66.35-1.03.35h-33.78c-.85,0-1.57.63-1.68,1.47l-3.39,24.96c-.14,1.02.65,1.92,1.68,1.92h72.86c1.03,0,1.82.91,1.68,1.92l-3.39,24.96c-.11.84-.83,1.47-1.68,1.47h-109.96c-1.03,0-1.82-.91-1.68-1.93l19.37-138.35c.12-.84.83-1.46,1.68-1.46Z"/>
  <path class="cls-2" d="M278.44,193.07l57.94-67.15c.47-.55.55-1.34.18-1.96l-39.21-67.28c-.66-1.13.16-2.55,1.46-2.55h40.01c.6,0,1.16.32,1.47.84l21.8,37.59c.59,1.01,1.99,1.14,2.75.25l32.77-38.1c.32-.37.79-.59,1.28-.59h39.46c1.45,0,2.23,1.7,1.28,2.8l-119.18,138.35c-.32.37-.79.59-1.28.59h-39.46c-1.45,0-2.23-1.7-1.28-2.8Z"/>
  <path class="cls-1" d="M385.55,132.93l35.18,60.39c.66,1.13-.16,2.55-1.46,2.55h-40.01c-.6,0-1.16-.32-1.47-.85l-18.95-32.74c-.36-.62-.29-1.41.18-1.95l23.78-27.65c.76-.88,2.16-.75,2.75.25Z"/>
  <path class="cls-2" d="M446.28,101.49l36.69-26.6c1.21-.88,2.88.13,2.67,1.61l-16.46,117.91c-.12.84-.83,1.46-1.68,1.46h-33.02c-1.03,0-1.82-.91-1.68-1.93l12.79-91.31c.06-.46.31-.87.68-1.14Z"/>
  <path class="cls-1" d="M447.47,89.07l4.71-33.48c.12-.84.83-1.46,1.68-1.46h34.98l-1.12,8.79c-.06.47-.31.89-.69,1.16l-36.88,26.6c-1.21.87-2.88-.13-2.67-1.61Z"/>
  <path class="cls-2" d="M568.6,111.23c10.39,0,19.17.78,26.32,2.33,7.15,1.55,12.92,3.78,17.31,6.68,4.39,2.91,7.52,6.51,9.42,10.83,1.89,4.32,2.84,9.25,2.84,14.78,0,6.07-.91,12.12-2.74,18.12-1.82,6.01-4.52,11.37-8.1,16.09-3.58,4.73-7.96,8.54-13.16,11.44-5.2,2.91-11.17,4.35-17.92,4.35h-93.92c-1.37,0-2.18-1.55-1.38-2.67l17.65-24.96c.32-.45.83-.72,1.38-.72h65.94c5.13,0,8.88-1.49,11.24-4.46,2.36-2.97,3.82-6.34,4.35-10.12.67-4.72-1.01-8.13-5.06-10.23-4.05-2.09-10.12-3.14-18.22-3.14h-18.83c-14.98,0-25.92-3-32.8-9.01-6.89-6.01-10.33-14.55-10.33-25.62,0-5.8.88-11.71,2.63-17.72,1.75-6.01,4.32-11.47,7.69-16.4,3.37-4.93,7.55-8.94,12.55-12.05,4.99-3.1,10.73-4.66,17.21-4.66h88.25c1.37,0,2.18,1.55,1.38,2.67l-17.65,24.96c-.32.45-.83.72-1.38.72h-54.6c-2.57,0-4.96.41-7.19,1.22-2.22.81-4.18,1.92-5.87,3.34-1.69,1.42-3.07,3.04-4.15,4.86-1.08,1.82-1.75,3.68-2.02,5.57-.68,4.86,1.01,8.37,5.06,10.53s10.12,3.24,18.22,3.24h5.87Z"/>
</svg>